<?xml version="1.0" standalone="no"?><!DOCTYPE svg PUBLIC "-//W3C//DTD SVG 1.1//EN" "http://www.w3.org/Graphics/SVG/1.1/DTD/svg11.dtd"><svg t="1599698080670" class="icon" viewBox="0 0 1024 1024" version="1.1" xmlns="http://www.w3.org/2000/svg" p-id="1807" xmlns:xlink="http://www.w3.org/1999/xlink" width="200" height="200"><defs><style type="text/css"></style></defs><path d="M753.216295 223.994564a296.025087 296.025087 0 0 0-6.306636-9.147334c52.777017-86.503143-71.751161-152.825664-116.829845-79.403445-55.500035-10.233062-101.913111 10.06831-108.163465 12.987802-6.201236-2.895957-52.04433-22.939455-107.019409-13.198603-54.435797-76.598562-166.779468 2.578732-117.247354 78.620615a275.129174 275.129174 0 0 0-7.033184 10.140965c-70.400397 107.137089-17.553795 179.746804-17.553794 179.746803l10.833742-10.818393s15.376199 74.708516 96.67276 123.776048l2.933819-16.117073c50.036603 53.463656 96.43126 52.251038 139.567709 101.071954 39.95806-46.258557 97.950869-46.258557 143.129838-103.995539v20.495799c83.48132-40.645722 91.188862-128.523165 91.188862-128.523165l7.682983 14.277168c-0.001023-0.002047 58.546418-72.776514-11.856026-179.913602" fill="#002B5C" p-id="1808"></path><path d="M522.915096 498.184343s-39.029922 0.586354-44.803416 4.190439c0 0-6.704702 11.617595 44.803416 11.393491 49.009204-0.215918 41.773406-9.147334 42.131562-10.467399 0 0-16.5837-5.116531-42.131562-5.116531" fill="#B8CFE9" p-id="1809"></path><path d="M650.893862 170.908508s16.681938-41.705867 67.798129-31.637558c0 0-46.927799-30.878265-79.573313 24.950252 0 0-46.353724-21.978571-116.204606 8.223289 0 0-66.148559-23.074531-116.044969-10.009982 0 0-29.095665-50.485835-70.074985-29.691229-40.971134 20.788465-19.59836 68.88795-12.46387 81.360006 0 0-67.906599 69.174476-42.371016 154.708548l13.656021-17.043165s19.510356 93.146447 69.841671 122.504078l3.0208-22.904663s52.53961 63.403029 114.313536 90.328262c5.884011 2.753717 38.630832 19.025309 39.639812 27.050076v-44.36237s-42.872436 3.574409-54.180994-16.21838c-7.682983-13.444197-56.958246-101.351316-32.612768-193.425338 0 0-23.704888-3.5345-28.176736-43.534516 0 0-17.676591-8.603959-39.645952-6.816242 0 0 39.299051-12.338003 76.120678 1.921769 36.829813 14.259772 46.681182 50.538023 71.640644 34.508955l7.337105-102.241592 7.023974 102.241592c24.950252 16.029068 34.819017-20.249183 71.637573-34.508955 36.823674-14.259772 76.135004-1.921769 76.135005-1.921769s-15.717983-11.083429-40.987507-16.135492c-21.076014-4.213975-52.068889 9.324366-52.068889 9.324366s4.279467-28.999474 18.34788-44.461631c12.076036-13.30605 39.441291-16.236799 47.892777-42.208311" fill="#7299C6" p-id="1810"></path><path d="M521.523399 322.169537s-18.969027 4.173043-43.430138-16.404622c-14.20042-12.002358-41.462321-31.478945-52.718689-29.164226 0 0 5.811356 43.189661 41.790802 35.382858-9.69685 24.269753-29.814026 92.297103 6.485715 182.179203 0 0 26.367531-6.294356 34.537607-6.528694l14.241352-0.756223v-20.98187c0-1.682315-11.750625-17.400299-20.771069-25.137517-6.500041-5.566786-12.588713 12.06785-12.588713 12.06785-38.043455-48.211025 32.721239-42.679032 32.721239-42.679032 0.001023-9.629311-0.268106-87.977727-0.268106-87.977727" fill="#B8CFE9" p-id="1811"></path><path d="M555.979142 452.838575c45.421492-46.090734-28.706809-43.399439-33.398668-42.679031 7.613398 0.421602 65.082274 0.743944 33.398668 42.679031" fill="#7299C6" p-id="1812"></path><path d="M622.225939 276.601712c-21.889543 2.091638-40.971134 18.661012-47.895847 24.955368-7.030114 6.39464-17.896602 13.111622-17.896602 13.111623s8.682753 0.421602 15.907295-0.304946c14.083763 26.028816 34.769898 96.106872 2.578732 180.368974 0 0 52.253084-70.923306 11.250228-181.348278 32.151257-0.503467 36.056194-36.782741 36.056194-36.782741" fill="#7299C6" p-id="1813"></path><path d="M606.614379 280.833083s1.64957 23.865547-15.924691 28.941146c-3.718695-7.231705-10.469446-11.376095-14.385638-9.857509 0.001023 0 17.277502-15.226796 30.310329-19.083637M440.763051 280.833083s-1.65264 23.865547 15.915481 28.941146c3.712555-7.231705 10.473539-11.376095 14.382569-9.857509 0 0-17.281595-15.226796-30.29805-19.083637" fill="#FFD24F" p-id="1814"></path><path d="M392.566352 168.130232s-30.857798-38.71986-56.410777-13.383822c0 0 20.659529-0.75827 30.405497 11.18883 0 0-25.723871-10.986215-37.216624 11.481495 0 0 12.665461-6.484691 19.901259 1.001817 0 0-17.574261 13.796214-16.108886 27.710109 0 0 31.956829-31.777751 59.429531-37.998429M674.327574 626.403586V678.588109h-15.546068v-52.160987l-38.672788 0.076748 7.240915 20.413936v113.190968h31.431873v-52.702316h15.546068v52.702316h31.455409v-133.705188z" fill="#002B5C" p-id="1815"></path><path d="M592.917426 669.62804c0 5.058203-3.300162 9.008164-7.511068 9.008165h-8.258081v-22.483061h8.258081c4.13518 0 7.511067 4.055362 7.511068 9.04398v4.430916z m-2.192945-42.186821l-51.615565 0.023536 7.135514 19.750833v112.102171h30.903847v-52.150754l16.577561-0.316202c18.356067 0 28.263717-16.276708 28.263717-31.632441l0.337691-19.522636c0-18.343787-16.278755-28.254507-31.602765-28.254507M410.729014 660.732439V626.767883l-79.189574 0.117681 6.830569 18.5771v113.023147c6.385431 0 72.357981-0.048095 72.357981-0.048096V726.192314l-40.059367-0.054236v-16.398481h25.665542v-33.231869h-25.665542v-15.775289h40.060391zM719.679481 648.340201l-7.935739-21.61325h42.292222l0.015349 132.566248h-34.322713z" fill="#002B5C" p-id="1816"></path><path d="M605.160261 675.206082c0 10.614755-8.506744 15.456017-16.390295 15.456017h-24.969695v-45.621037h24.969695c7.883551 0 16.390295 5.309936 16.390295 15.934924v14.230096z m-16.390295-35.991725h-30.786167v120.078842h5.816472v-62.811558h24.969695c11.030218 0 22.204721-7.312546 22.204721-21.275559v-14.230096c0.001023-13.964036-11.17348-21.76163-22.204721-21.761629M410.711618 738.657206s-47.14167 0.109494-52.380998 0.127914v-43.123147h38.004569v-5.820565h-38.004569v-42.626843h52.399417v-5.814426h-58.21896v103.204523l58.21896-0.127913-0.018419-5.819543zM733.981209 626.795513h5.813402v132.522246h-5.813402zM687.733908 626.427122v62.213947h-40.97625v-62.213947h-5.816472v133.727701h5.816472v-65.693188h40.97625v65.693188h5.817496V626.427122z" fill="#7299C6" p-id="1817"></path><path d="M291.308157 758.225891h33.603329l-0.081864-136.551003c0-19.371186-16.448624-30.78105-33.098839-30.78105h-96.696296l8.14654 21.959128v145.373948h33.606399V625.044636h11.168364v133.042085h33.623795V625.044636l4.79419-0.106424c2.76702 0 4.993734 2.983961 4.993734 6.66991l-0.059352 126.617769z" fill="#002B5C" p-id="1818"></path><path d="M289.540907 604.690052l-72.349795-0.205684v153.713894h5.825683V610.314143c2.898003 0.008186 22.083971 0.065492 39.117926 0.113587v147.645688h5.817495V610.444103c11.9471 0.035816 21.568225 0.060375 21.568225 0.060375 9.014304 0 16.841573 6.903224 16.841574 20.090571v127.631865h5.817495V630.595049c-0.001023-17.008372-10.743692-25.904996-22.638603-25.904997" fill="#7299C6" p-id="1819"></path><path d="M503.812015 758.99951h30.481222l-0.068561-103.70799c0-17.566074-14.916734-27.90863-30.026874-27.90863h-87.707574l7.39134 19.920702V758.99951h30.482245v-100.642164h10.138918v100.519368h30.493502v-100.519368l4.352121-0.094144c2.498914 0 4.52813 2.707668 4.52813 6.053879l-0.064469 94.682429z" fill="#002B5C" p-id="1820"></path><path d="M502.197238 639.626749l-65.87329-0.199545v119.651101h5.822613V645.269259c2.839675 0.01228 19.778462 0.060375 34.948976 0.106424V758.948345h5.808286V645.393079c10.704806 0.029676 19.288299 0.058328 19.288299 0.058329 7.789407 0 14.567787 5.615904 14.567787 17.941628v95.607498h5.821589v-95.607498c0-15.609513-9.454326-23.766286-20.38426-23.766287" fill="#7299C6" p-id="1821"></path><path d="M810.775222 706.007599v13.788028c0 3.281743-2.179642 5.944386-4.89038 5.944385h-1.992377c-2.705622 0-4.89038-2.662643-4.89038-5.944385V703.556781H762.796488v21.185508c0 25.242917 19.197224 34.854832 36.878932 34.854832h9.008165c22.201651 0 38.315654-13.672394 38.315654-35.662221V691.031513c0-23.953551-16.110933-32.469506-32.43983-32.469506l-6.520507-0.321318c-5.945409 0-9.376555-2.560312-9.376555-8.750291V631.925347c0-3.287883 2.179642-5.944386 4.89345-5.944386h2.001587c2.699482 0 4.88424 2.656503 4.884241 5.944386v13.403264h36.19434V624.076588c0-20.195971-16.240893-33.617655-37.46324-33.617655h-6.918573c-20.909216 0-39.812751 10.977006-39.812751 34.102702v30.950919c0 22.806425 21.167089 34.480302 37.883819 34.480303 12.384052 0.002047 10.450003 7.878434 10.450002 16.014742" fill="#002B5C" p-id="1822"></path><path d="M784.536628 613.018741c-6.372128 6.972808-5.726421 16.274662-5.696745 16.660449l-0.00921-0.257874c-0.066515 6.074346-0.251733 26.082028 0.201591 28.560476 0.668219 3.733021 2.462075 13.650905 16.680914 17.582447 3.319605 0.915859 7.042393 1.191128 10.654665 1.455142 12.143575 0.895393 19.574824 2.174526 19.574824 16.44453v30.135345c-0.022513 0.581238-0.826831 16.341177-21.757537 16.341176-20.146852 0-20.146852-13.263072-20.146852-22.043038v-14.254656h-5.685489v14.254656c0 8.322549 0 27.809369 25.832341 27.809369 26.578332 0 27.443026-21.812795 27.443026-22.028713l0.008187-30.213115c0-20.354584-14.367219-21.421892-24.849968-22.194488-3.490497-0.251733-6.789637-0.499373-9.567913-1.270947-10.778484-2.971681-12.000312-9.765411-12.577457-13.047154-0.242524-1.616824-0.242524-15.373129-0.119726-27.457352v-0.12382l-0.00921-0.127913c-0.01228-0.071631-0.443092-7.263427 4.240581-12.349259 3.297093-3.587712 8.442276-5.40408 15.267728-5.40408 7.388271 0 12.979616 2.023076 16.642029 6.01397 5.550413 6.072299 4.969175 14.892175 4.962012 14.98632v12.765744h5.690605V632.784924c0.00921-0.192382 0.023536-0.555655 0.023536-1.165546 0-3.206018-0.611937-11.558244-6.467295-17.97949-4.779863-5.258771-11.790534-7.92039-20.849864-7.92039-8.507768 0-15.06716 2.457981-19.484773 7.299243M363.99462 838.877769l-0.828878 2.292206c-0.958838 2.608407-3.437286 4.021593-5.67628 3.199878l-3.347234-1.213641-1.257644-0.463558 0.457418-1.218757 3.325745-9.153474 0.448208-1.218758 1.248434 0.451278 3.344165 1.218758c2.194992 0.788969 3.223415 3.527336 2.286066 6.106068m5.937222-19.902282l-27.575032-10.027378 0.064468 11.574617-21.051455 57.877175 16.371876 5.953595 9.790994-26.920116 4.969175 1.7826c1.421372 0.528026 2.010797 2.432399 1.348717 4.261047l-8.591679 23.624046 16.170285 5.890151 8.864902-24.345478c1.393743-3.845585 0.959861-7.366781-1.213642-9.945513 0 0 5.485945-0.955768 8.42488-9.04398l3.841492-10.011004c3.447519-9.469676-3.309372-17.72264-11.414981-20.669762M707.460182 826.388317l-5.693676-16.408715-40.812521 14.242375 6.868431 8.420787 20.404726 58.674331c3.285836-1.143033 37.439704-13.053294 37.439704-13.053294l-5.808286-16.228613-20.657482 7.157004c-0.579191-1.671059-3.363607-9.647731-3.363608-9.647731l13.234419-4.600785-5.756097-16.563234-13.234419 4.594645-3.275603-9.405207 20.654412-7.181563zM593.137437 894.197702l-5.321192-55.512315-21.77391 2.069125 5.421477 11.088546 5.77861 60.278875 42.688241-3.979637-1.559519-16.356527zM403.124825 840.899822l-1.48891-12.389168 20.887726 4.466731-14.663978 70.851675-17.066701-3.653203zM629.039111 843.889923l-6.369057-10.726296 20.906145-4.359284 15.208377 70.727854-17.077957 3.558036zM486.021837 841.421708l-43.348274-4.564969-1.508353 15.817244h0.040932l-0.463557 4.296863 12.116968-3.065826 7.004531 0.731664-24.730241 54.097083 43.353391 4.331655 1.497097-16.399505-18.661012-1.956562zM546.167682 842.371336l-43.570331-0.215917 0.068562 15.871479h0.032745l-0.023536 4.330632 11.750625-4.256954 7.036254 0.023536-19.217691 56.287981 43.575448-0.00614-0.150426-16.46295-18.763342-0.093121zM275.254529 857.990059c7.082302 4.716418 17.488303 4.206812 23.311939-4.541433l13.752212-20.50194-16.996093-11.30651-6.687306 10.057053 2.587942 1.728364-5.397941 7.830339c-1.110287 1.664919-2.857071 2.444679-5.377474 0.76748-2.53166-1.686409-1.833765-4.212952-1.833764-4.212951 0.789992-1.178849 20.817118-31.244608 20.817118-31.244609 1.108241-1.671059 2.957355-2.384303 4.13211-1.604544l2.315742 1.541099c1.174756 0.785899 1.221828 2.772136 0.12382 4.430916l-2.899026 4.365424 14.415314 9.653871 4.706185-7.075139c5.820566-8.750291 2.267647-18.549471-4.817725-23.25975l-7.337106-4.877077c-7.085372-4.712325-17.489326-4.197602-23.315008 4.546549l-26.127054 39.24584c-4.275373 6.412037-0.404206 14.458293 6.080485 18.767435l8.54563 5.689583zM761.325997 833.709049l3.25923 4.928243 0.154519 0.215918c0.815575 1.237177 0.653893 2.774183-0.357133 3.441378l-2.186806 1.446955c-1.013073 0.667196-2.481518 0.230244-3.302209-1.001817l-4.02364-6.072299-13.525038 8.974396 5.252631 7.910157c6.258541 9.442046 15.805988 8.264221 22.422685 3.879354l4.79419-3.187599c8.296967-5.492084 10.927887-14.603603 5.475711-22.816659l-8.156773-12.289907c-5.937223-8.943696-14.065344-8.134261-20.167319-4.078899l-3.953032 2.444679c-2.214435 1.476631-4.143367 1.37123-5.675256-0.949628l-4.204765-6.330172-0.147356-0.230244c-0.814552-1.224898-0.656963-2.759857 0.352017-3.428076l2.191922-1.459235c1.001817-0.661056 2.485611-0.211824 3.294023 1.019213l3.317558 5.004991 13.520945-8.977465-5.263887-7.942903c-5.010107-7.53665-14.399965-8.522094-22.323425-3.269463l-4.02364 2.677992c-7.816013 5.180999-12.149714 13.966083-6.417153 22.61302l7.668657 11.550057c5.65172 8.515954 16.451694 7.630794 22.696931 3.499708 5.698792-3.789303 7.302313-0.613984 9.326413 2.428305" fill="#7299C6" p-id="1823"></path></svg>